REM DIRINDEX 1\2\5,1\2\6,1\2\7,1\2\8,1\3\9,1\3\10,1\3\11,1\4\12,1\4\13,1\4\14,1\4\15,1\4\16
REM DIRNAME cjc034,folder01,folder02,folder03,folder04,folder05,folder06,folder07,folder08,folder09,folder10,folder11,folder12,folder13,folder14,folder15
TITLE ""
FILE "1200_2_sec02_0414_0429.mp3" MP3
  TRACK 01 AUDIO
    TITLE "0:"
    INDEX 01 00:00:00
  TRACK 02 AUDIO
    TITLE "10:cjc034_00848"
    INDEX 01 00:00:15
  TRACK 03 AUDIO
    TITLE "0:"
    INDEX 01 00:01:21
  TRACK 04 AUDIO
    TITLE "9:cjc034_00849"
    INDEX 01 00:01:24
  TRACK 05 AUDIO
    TITLE "0:"
    INDEX 01 00:02:28
  TRACK 06 AUDIO
    TITLE "10:cjc034_00850"
    INDEX 01 00:03:08
  TRACK 07 AUDIO
    TITLE "0:"
    INDEX 01 00:05:36
  TRACK 08 AUDIO
    TITLE "9:cjc034_00851"
    INDEX 01 00:05:40
  TRACK 09 AUDIO
    TITLE "0:"
    INDEX 01 00:06:57
  TRACK 10 AUDIO
    TITLE "10:cjc034_00852"
    INDEX 01 00:07:37
  TRACK 11 AUDIO
    TITLE "0:"
    INDEX 01 00:08:40
  TRACK 12 AUDIO
    TITLE "9:cjc034_00853"
    INDEX 01 00:08:44
  TRACK 13 AUDIO
    TITLE "0:"
    INDEX 01 00:09:47
  TRACK 14 AUDIO
    TITLE "10:cjc034_00854"
    INDEX 01 00:10:29
  TRACK 15 AUDIO
    TITLE "0:"
    INDEX 01 00:11:46
  TRACK 16 AUDIO
    TITLE "9:cjc034_00855"
    INDEX 01 00:11:48
  TRACK 17 AUDIO
    TITLE "0:"
    INDEX 01 00:12:46
  TRACK 18 AUDIO
    TITLE "10:cjc034_00856"
    INDEX 01 00:13:30
  TRACK 19 AUDIO
    TITLE "0:"
    INDEX 01 00:15:42
  TRACK 20 AUDIO
    TITLE "9:cjc034_00857"
    INDEX 01 00:15:48
  TRACK 21 AUDIO
    TITLE "0:"
    INDEX 01 00:16:57
  TRACK 22 AUDIO
    TITLE "10:cjc034_00858"
    INDEX 01 00:17:41
  TRACK 23 AUDIO
    TITLE "0:"
    INDEX 01 00:18:27
  TRACK 24 AUDIO
    TITLE "9:cjc034_00859"
    INDEX 01 00:18:33
  TRACK 25 AUDIO
    TITLE "0:"
    INDEX 01 00:19:46
  TRACK 26 AUDIO
    TITLE "10:cjc034_00860"
    INDEX 01 00:20:26
  TRACK 27 AUDIO
    TITLE "0:"
    INDEX 01 00:22:15
  TRACK 28 AUDIO
    TITLE "9:cjc034_00861"
    INDEX 01 00:22:19
  TRACK 29 AUDIO
    TITLE "0:"
    INDEX 01 00:23:30
  TRACK 30 AUDIO
    TITLE "10:cjc034_00862"
    INDEX 01 00:24:10
  TRACK 31 AUDIO
    TITLE "0:"
    INDEX 01 00:26:01
  TRACK 32 AUDIO
    TITLE "9:cjc034_00863"
    INDEX 01 00:26:03
  TRACK 33 AUDIO
    TITLE "0:"
    INDEX 01 00:27:00
  TRACK 34 AUDIO
    TITLE "10:cjc034_00864"
    INDEX 01 00:27:57
  TRACK 35 AUDIO
    TITLE "0:"
    INDEX 01 00:29:60
  TRACK 36 AUDIO
    TITLE "9:cjc034_00865"
    INDEX 01 00:29:62
  TRACK 37 AUDIO
    TITLE "0:"
    INDEX 01 00:30:73
  TRACK 38 AUDIO
    TITLE "10:cjc034_00866"
    INDEX 01 00:31:55
  TRACK 39 AUDIO
    TITLE "0:"
    INDEX 01 00:32:54
  TRACK 40 AUDIO
    TITLE "9:cjc034_00867"
    INDEX 01 00:32:58
  TRACK 41 AUDIO
    TITLE "0:"
    INDEX 01 00:33:60
  TRACK 42 AUDIO
    TITLE "10:cjc034_00868"
    INDEX 01 00:34:43
  TRACK 43 AUDIO
    TITLE "0:"
    INDEX 01 00:35:55
  TRACK 44 AUDIO
    TITLE "9:cjc034_00869"
    INDEX 01 00:35:57
  TRACK 45 AUDIO
    TITLE "0:"
    INDEX 01 00:36:48
  TRACK 46 AUDIO
    TITLE "10:cjc034_00870"
    INDEX 01 00:37:34
  TRACK 47 AUDIO
    TITLE "0:"
    INDEX 01 00:39:60
  TRACK 48 AUDIO
    TITLE "9:cjc034_00871"
    INDEX 01 00:39:68
  TRACK 49 AUDIO
    TITLE "0:"
    INDEX 01 00:40:66
  TRACK 50 AUDIO
    TITLE "10:cjc034_00872"
    INDEX 01 00:41:47
  TRACK 51 AUDIO
    TITLE "0:"
    INDEX 01 00:42:49
  TRACK 52 AUDIO
    TITLE "9:cjc034_00873"
    INDEX 01 00:42:57
  TRACK 53 AUDIO
    TITLE "0:"
    INDEX 01 00:43:72
  TRACK 54 AUDIO
    TITLE "10:cjc034_00874"
    INDEX 01 00:44:56
  TRACK 55 AUDIO
    TITLE "0:"
    INDEX 01 00:46:68
  TRACK 56 AUDIO
    TITLE "9:cjc034_00875"
    INDEX 01 00:46:70
  TRACK 57 AUDIO
    TITLE "0:"
    INDEX 01 00:47:72
  TRACK 58 AUDIO
    TITLE "10:cjc034_00876"
    INDEX 01 00:48:55
  TRACK 59 AUDIO
    TITLE "0:"
    INDEX 01 00:49:57
  TRACK 60 AUDIO
    TITLE "9:cjc034_00877"
    INDEX 01 00:49:69
  TRACK 61 AUDIO
    TITLE "0:"
    INDEX 01 00:50:54
  TRACK 62 AUDIO
    TITLE "10:cjc034_00878"
    INDEX 01 00:51:38
  TRACK 63 AUDIO
    TITLE "0:"
    INDEX 01 00:53:49
  TRACK 64 AUDIO
    TITLE "9:cjc034_00879"
    INDEX 01 00:53:53
  TRACK 65 AUDIO
    TITLE "0:"
    INDEX 01 00:55:03
